<svg height="512pt" viewBox="0 -68 512.00003 512" width="512pt" xmlns="http://www.w3.org/2000/svg"><path d="m503.464844 292.503906v-79.171875c0-14.136719-11.460938-25.597656-25.597656-25.597656h-28.859376l-24.695312-49.402344c-5.75-11.59375-17.589844-18.910156-30.535156-18.867187h-26.84375v-51.199219c0-14.136719-11.460938-25.597656-25.601563-25.597656h-25.597656v-12.800781c0-16.496094-13.371094-29.867188-29.867187-29.867188-16.496094 0-29.867188 13.371094-29.867188 29.867188v12.800781h-136.535156v-12.800781c0-16.496094-13.371094-29.867188-29.863282-29.867188-16.496093 0-29.867187 13.371094-29.867187 29.867188v12.800781h-25.601563c-14.136718 0-25.597656 11.460937-25.597656 25.597656v224.238281c-5.265625 3.027344-8.5156248 8.625-8.535156 14.695313v17.066406c0 9.425781 7.640625 17.066406 17.066406 17.066406h54.1875c2.238282 6.300781 5.691406 12.097657 10.164063 17.066407h-21.683594c-4.714844 0-8.535156 3.820312-8.535156 8.535156 0 4.710937 3.820312 8.53125 8.535156 8.53125h247.464844c4.714843 0 8.535156-3.820313 8.535156-8.53125 0-4.714844-3.820313-8.535156-8.535156-8.535156h-149.683594c4.472656-4.96875 7.925781-10.765626 10.164063-17.066407h210.773437c2.238281 6.300781 5.691406 12.097657 10.164063 17.066407h-47.285157c-4.710937 0-8.53125 3.820312-8.53125 8.535156 0 4.710937 3.820313 8.53125 8.53125 8.53125h162.132813c4.714844 0 8.535156-3.820313 8.535156-8.53125 0-4.714844-3.820312-8.535156-8.535156-8.535156h-38.746094c4.46875-4.96875 7.921875-10.765626 10.160156-17.066407h20.054688c9.425781 0 17.066406-7.640625 17.066406-17.066406v-17.066406c-.019531-6.070313-3.269531-11.667969-8.535156-14.695313zm-17.066406-79.171875v76.800781h-21.679688c-9.671875-10.855468-23.515625-17.066406-38.050781-17.066406-14.539063 0-28.382813 6.210938-38.050781 17.066406h-21.683594v-42.667968h76.800781c4.710937 0 8.53125-3.820313 8.53125-8.53125 0-4.714844-3.820313-8.535156-8.53125-8.535156h-76.800781v-25.597657h76.800781c.730469-.050781 1.453125-.195312 2.148437-.4375 1.027344.246094 2.070313.390625 3.125.4375h28.859376c4.710937 0 8.53125 3.820313 8.53125 8.53125zm-92.621094-76.796875c6.472656-.023437 12.390625 3.632813 15.269531 9.425782l20.878906 41.773437h-62.992187v-51.199219zm-120.710938-106.667968c0-7.070313 5.730469-12.800782 12.800782-12.800782 7.070312 0 12.800781 5.730469 12.800781 12.800782v12.800781h-25.601563zm-196.265625 0c0-7.070313 5.730469-12.800782 12.800781-12.800782 7.066407 0 12.796876 5.730469 12.796876 12.800782v12.800781h-25.597657zm-51.199219 38.398437c0-4.710937 3.820313-8.53125 8.53125-8.53125h307.199219c4.714844 0 8.535157 3.820313 8.535157 8.53125v221.867187h-17.066407v-187.734374c0-9.425782-7.640625-17.066407-17.066406-17.066407h-85.335937c-9.425782 0-17.066407 7.640625-17.066407 17.066407v187.734374h-55.816406c-9.667969-10.855468-23.511719-17.066406-38.050781-17.066406-14.535156 0-28.378906 6.210938-38.046875 17.066406h-55.816407zm290.132813 221.867187h-85.335937v-187.734374h85.335937zm-298.667969 34.132813v-17.066406h54.1875c-1.964844 5.476562-2.976562 11.25-2.988281 17.066406zm68.265625 0c0-18.851563 15.285157-34.132813 34.132813-34.132813 18.851562 0 34.136718 15.28125 34.136718 34.132813s-15.285156 34.132813-34.136718 34.132813c-9.050782 0-17.734375-3.59375-24.132813-9.996094-6.402343-6.402344-10-15.082032-10-24.136719zm85.335938 0c-.011719-5.816406-1.023438-11.589844-2.988281-17.066406h210.773437c-1.964844 5.476562-2.976563 11.25-2.988281 17.066406zm221.867187 0c0-18.851563 15.28125-34.132813 34.132813-34.132813 18.851562 0 34.132812 15.28125 34.132812 34.132813s-15.28125 34.132813-34.132812 34.132813c-18.851563 0-34.132813-15.28125-34.132813-34.132813zm102.398438 0h-17.066406c-.011719-5.816406-1.019532-11.589844-2.988282-17.066406h20.054688zm0 0"/><path d="m264.535156 187.734375h17.066406c9.425782 0 17.066407-7.640625 17.066407-17.066406v-34.132813c0-9.425781-7.640625-17.070312-17.066407-17.070312h-17.066406c-9.425781 0-17.070312 7.644531-17.070312 17.070312v34.132813c0 9.425781 7.644531 17.066406 17.070312 17.066406zm0-51.199219h17.066406v34.132813h-17.066406zm0 0"/><path d="m256.121094 230.398438h34.011718c4.714844 0 8.535157-3.820313 8.535157-8.53125 0-4.714844-3.820313-8.535157-8.535157-8.535157h-28.800781c-6.183593 0-13.867187 0-13.867187 8.535157-.050782 2.296874.851562 4.515624 2.488281 6.132812 1.636719 1.613281 3.867187 2.484375 6.167969 2.398438zm0 0"/><path d="m281.601562 247.464844h-14.40625c-7.433593 0-11.195312 2.867187-11.195312 8.535156.109375 4.722656 3.953125 8.503906 8.679688 8.535156h16.921874c4.710938 0 8.53125-3.824218 8.53125-8.535156s-3.820312-8.535156-8.53125-8.535156zm0 0"/><path d="m85.332031 196.265625v25.601563c0 9.425781 7.640625 17.066406 17.066407 17.066406h34.136718c9.425782 0 17.066406-7.640625 17.066406-17.066406v-25.601563h25.597657c9.425781 0 17.066406-7.640625 17.066406-17.066406v-34.132813c0-9.425781-7.640625-17.066406-17.066406-17.066406h-25.597657v-25.601562c0-9.425782-7.640624-17.066407-17.066406-17.066407h-34.136718c-9.425782 0-17.066407 7.640625-17.066407 17.066407v25.601562h-25.597656c-9.425781 0-17.066406 7.640625-17.066406 17.066406v34.132813c0 9.425781 7.640625 17.066406 17.066406 17.066406zm-25.597656-51.199219h34.132813c4.710937 0 8.53125-3.820312 8.53125-8.53125v-34.136718h34.136718v34.136718c0 4.710938 3.820313 8.53125 8.53125 8.53125h34.132813v34.132813h-34.132813c-4.710937 0-8.53125 3.820312-8.53125 8.535156v34.132813h-34.136718v-34.132813c0-4.714844-3.820313-8.535156-8.53125-8.535156h-34.132813zm0 0"/><path d="m25.601562 358.398438h-17.066406c-4.714844 0-8.535156 3.820312-8.535156 8.535156 0 4.710937 3.820312 8.53125 8.535156 8.53125h17.066406c4.710938 0 8.53125-3.820313 8.53125-8.53125 0-4.714844-3.820312-8.535156-8.53125-8.535156zm0 0"/></svg>