<svg id="Capa_1" enable-background="new 0 0 510.12 510.12" height="512" viewBox="0 0 510.12 510.12" width="512" xmlns="http://www.w3.org/2000/svg"><path d="m144.246 9.22c-46.3 14.43-86.71 45.06-112.89 86.63h78.35c6.701-29.31 17.694-61.743 34.54-86.63z"/><path d="m299.626 95.85h78.35c-26.19-41.57-66.59-72.2-112.89-86.63 16.85 24.892 27.842 57.333 34.54 86.63z"/><path d="m310.816 184.39c15.33-4.23 31.48-6.49 48.14-6.49 17.1 0 33.66 2.38 49.35 6.83.01 0 .01.01.01.01-.917-14.678-6.095-38.224-14.76-58.89h-88.23c2.9 18.72 4.76 38.37 5.49 58.54z"/><path d="m103.996 125.85h-88.23c-20.235 48.009-21.651 105.98 0 157.5h88.23c-7.825-50.522-7.835-106.917 0-157.5z"/><path d="m109.706 313.35h-78.35c26.19 41.58 66.59 72.22 112.9 86.64-16.794-24.773-27.825-57.224-34.55-86.64z"/><path d="m268.796 95.85c-3.66-14.69-8.1-28.38-13.26-40.76-14.37-34.48-33.38-55.08-50.86-55.09h-.02c-17.48.01-36.49 20.61-50.87 55.09-5.16 12.38-9.59 26.07-13.26 40.76z"/><path d="m281.106 195.5c-.41-24.25-2.5-47.73-6.13-69.65h-140.62c-8.304 50.047-8.319 107.363 0 157.5h60.06c17.74-38.42 48.55-69.62 86.69-87.85z"/><path d="m140.526 313.35c7.018 28.091 20.436 65.976 41.72 85.41-6.299-27.996-5.852-57.524 1.43-85.41z"/><path d="m358.956 207.9c-83.345 0-151.11 67.798-151.11 151.11 0 83.105 67.568 151.11 151.11 151.11 83.32 0 151.11-67.79 151.11-151.11 0-83.256-67.739-151.11-151.11-151.11zm15 234.38v14.81c0 8.28-6.72 15-15 15s-15-6.72-15-15v-14.81c-6.945 0-21.626 1.09-38.33-10.49-6.787-4.712-8.512-14.057-3.77-20.88 4.4-6.349 13.31-8.803 21.04-3.65 4.477 3.043 9.756 4.964 15.09 5.02h39.98c10.571 0 19.13-8.541 19.13-19.13 0-10.55-8.58-19.14-19.13-19.14-19.999 0-19.257 0-38.02 0-26.962 0-49.13-21.925-49.13-49.14 0-24.779 18.355-49.13 53.14-49.13v-14.81c0-8.28 6.72-15 15-15s15 6.72 15 15v14.81c26.664 0 42.921 15.133 46.34 21.39 3.23 5.86 2.22 13.37-2.89 18.16-14.987 14.008-21.393-9.341-40.79-9.55h-36.67c-10.598 0-19.13 8.576-19.13 19.13 0 10.56 8.58 19.14 19.13 19.14h34.39c33.375 0 52.76 23.511 52.76 49.14 0 24.096-17.571 49.13-53.14 49.13z"/></svg>