<svg width="80" height="80" viewBox="0 0 80 80" fill="none" xmlns="http://www.w3.org/2000/svg">
<path fill-rule="evenodd" clip-rule="evenodd" d="M40 3C19.5655 3 3 19.5655 3 40C3 50.8966 7.71036 60.693 15.206 67.4641C16.8713 60.4519 21.4936 54.5763 27.6046 51.141C25.012 48.2992 23.4347 44.5572 23.4347 40.4474C23.4347 31.5205 30.8766 24.3289 40.0003 24.3289C49.1239 24.3289 56.5659 31.5205 56.5659 40.4474C56.5659 44.5405 55.0014 48.2687 52.4276 51.1062C54.5089 52.2531 56.3328 53.7581 58.1038 55.352L58.1233 55.3696L58.1419 55.3882C61.4496 58.6959 63.8564 62.7633 64.838 67.4244C72.308 60.6547 77 50.8753 77 40C77 19.5655 60.4345 3 40 3ZM50.6951 50.2665C50.6856 50.2626 50.676 50.2586 50.6665 50.2546L50.6368 50.3259C47.9598 53.0368 44.1897 54.7289 40.0003 54.7289C31.8407 54.7289 25.2718 48.31 25.2718 40.4474C25.2718 32.5849 31.8407 26.166 40.0003 26.166C48.1599 26.166 54.7288 32.5849 54.7288 40.4474C54.7288 44.2437 53.1974 47.7034 50.6951 50.2665ZM50.9177 52.5703C52.9985 53.619 54.8412 55.1076 56.7462 56.8209C60.0628 60.1442 62.3536 64.2414 63.079 68.9217C56.7517 73.9774 48.7289 77 40 77C31.2783 77 23.2613 73.9823 16.9364 68.934C18.286 61.8417 22.9112 55.8785 29.113 52.596C32.028 55.0701 35.8393 56.566 40.0003 56.566C44.1757 56.566 47.9989 55.0598 50.9177 52.5703ZM1 40C1 18.4609 18.4609 1 40 1C61.5391 1 79 18.4609 79 40C79 61.5391 61.5391 79 40 79C18.4609 79 1 61.5391 1 40Z" fill="#414142"/>
</svg>
