<svg id="Layer_3" enable-background="new 0 0 64 64" height="512" viewBox="0 0 64 64" width="512" xmlns="http://www.w3.org/2000/svg"><circle cx="56" cy="56" fill="#b3b6c2" r="6"/><circle cx="56" cy="56" fill="#868992" r="2"/><path d="m26 2h4v8h-4z" fill="#5a5b61"/><path d="m12 2h4v8h-4z" fill="#5a5b61"/><path d="m36 21v-11c0-1.105-.895-2-2-2h-4v-4h4c3.314 0 6 2.686 6 6v11c0 10.493-8.507 19-19 19-10.493 0-19-8.507-19-19v-11c0-3.314 2.686-6 6-6h4v4h-4c-1.105 0-2 .895-2 2v11c0 8.284 6.716 15 15 15 8.284 0 15-6.716 15-15z" fill="#b3b6c2"/><circle cx="47" cy="27" fill="#b24e4a" r="15"/><ellipse cx="45" cy="27" fill="#ed6863" rx="13" ry="14.851"/><path d="m25 62c-2.757 0-5-2.243-5-5v-17h2v17c0 1.654 1.346 3 3 3s3-1.346 3-3v-6c0-3.309 2.691-6 6-6s6 2.691 6 6v2c0 1.103.897 2 2 2h8v2h-8c-2.206 0-4-1.794-4-4v-2c0-2.206-1.794-4-4-4s-4 1.794-4 4v6c0 2.757-2.243 5-5 5z" fill="#5a5b61"/><path d="m45 32c-.016 0-.031 0-.048-.001-.361-.017-.685-.229-.847-.552l-2.229-4.459-1.044 1.566c-.186.279-.498.446-.832.446h-3v-2h2.465l1.703-2.555c.198-.296.521-.465.895-.443.355.022.673.232.832.551l2.202 4.405 4.056-6.488c.185-.296.5-.502.856-.47.349.003.67.187.849.485l2.708 4.515h3.434v2h-4c-.352 0-.677-.184-.857-.485l-2.16-3.6-4.135 6.615c-.183.293-.504.47-.848.47z" fill="#b3b6c2"/></svg>