<?xml version="1.0" encoding="utf-8"?>
<svg id="master-artboard" viewBox="0 0 1064.9635009765625 1056.2042236328125" version="1.1" xmlns="http://www.w3.org/2000/svg" x="0px" y="0px" width="1064.9635009765625px" height="1056.2042236328125px" enable-background="new 0 0 1400 1400" xmlns:xlink="http://www.w3.org/1999/xlink"><rect id="ee-background" x="0" y="0" width="1064.9635009765625" height="1056.2042236328125" style="fill: white; fill-opacity: 0; pointer-events: none;"/>


<g transform="matrix(1, 0, 0, 1, -166.42333984375, -260.58391284942627)">
	<g>
		<defs>
			<path d="M 136.600006 320.700012 H 1311.000031 V 1310 H 136.600006 V 320.700012 Z" id="SVGID_1_"/>
		</defs>
		<clipPath id="SVGID_2_">
			<use overflow="visible" xlink:href="#SVGID_1_"/>
		</clipPath>
		<g clip-path="url(#SVGID_2_)">
			<path fill="#67BAB4" d="M1009.2,826.2c0.6,2.2,3.9-1.8,1.7-1.2c-40.6,11.8-82.2,21.4-124.5,22.5s-85.5-6.6-122.3-27.4&#10;&#9;&#9;&#9;&#9;c-16.3-9.2-31.6-21.1-49.8-25.8c-18.2-4.7-40.9,0.4-48.8,17.4c-17.7,37.7-4.4,87.4,17.2,123c29.3,48.1,91.4,63.7,147.6,67.5&#10;&#9;&#9;&#9;&#9;c81.3,5.4,167.9-7.1,232-57.5c5.8-4.5,11.8-10.2,12.2-17.6c0.3-5.1-2.2-9.9-4.7-14.3C1053,882.5,1031.4,852.9,1009.2,826.2z"/>
			<path fill="#B4FCF5" d="M806.6,992l-11.9-2.3c-1.1-0.2-1.6,1.5-0.5,1.7l11.9,2.3C807.2,993.9,807.7,992.2,806.6,992z"/>
			<path fill="#E0A94F" d="M935.3,940.6c-13.8,37.4-32.7,73.3-58.9,103.4c-26.2,30.1-60,54.2-98.2,65.4c-21.8,6.4-44.5,8.5-67,11.5&#10;&#9;&#9;&#9;&#9;c-10.7-24.4-22.3-48.3-34.8-71.8c30.7-3.6,62.7-7.7,88.3-25.1c10-6.8,18.7-15.5,26.8-24.4c29.3-32.2,53.3-68.8,76.5-105.7&#10;&#9;&#9;&#9;&#9;c8.3-13.1,16.6-26.4,27.2-37.7c10.6-11.3,23.8-20.7,38.9-24.3c-0.5,0,0.2-1.2,0.6-1.1c0.5,0.1,0.8,0.6,0.9,1.1&#10;&#9;&#9;&#9;&#9;c5.3,14.7,4.3,30.9,1.2,46.1c-3.1,15.3-8.1,30.1-10.7,45.5c-0.6,3.3-1,6.7-0.2,10C926.8,936.7,932,940,935.3,940.6z"/>
			<path fill="#EDBB5F" d="M1218.7,1331.7c17.9-53.6-9.6-194.4-9.2-212.6c1.4-58.8-13.5-101.7-21.8-159.9&#10;&#9;&#9;&#9;&#9;c-2.5-17.4-5.4-34.7-11.1-51.3c-4.5-13.1-10.7-25.6-17.2-37.8c-10.5-19.8-21.9-39.4-38.1-54.8c-28.2-26.9-69.3-38.4-108.1-34.3&#10;&#9;&#9;&#9;&#9;c0.5-5.1-0.1-8.3-3.9-11.9c-9,2.8-17.7,6.3-26.1,10.5c-6.9,3.5-13.6,7.4-20.7,10.5c-12.3,5.3-27.7,9-41.2,8.4&#10;&#9;&#9;&#9;&#9;c-26.8,48.1-33.8,104.4-38.7,159.2c-8,90.6-17.9,266.7-16.7,357.7c2.1-2.3,28.1,36.8,26.6,34.1c15.9,23.9,33.4-19.6,61.3-13&#10;&#9;&#9;&#9;&#9;c28,6.6,61.5,6.6,90.1,3.2c19.4-2.3,35,11.1,52,1.6c18.9-10.5,30.7,8.6,52,4.9c7.9-1.4,19-13.9,26.9-14.6&#10;&#9;&#9;&#9;&#9;c8-0.8,18.4,31.4,23.3,25.1C1204.1,1349.3,1212.8,1338.9,1218.7,1331.7z"/>
			<path fill="#ED9A7A" d="M972.6,868.7c17.5,2.4,37.9,0.1,48.5-14.1c8.1-10.9,8.2-25.6,7.8-39.2c-0.7-31.3-1.5-62.6-2.2-94&#10;&#9;&#9;&#9;&#9;c-30.6,1.8-59.7,20-74.8,46.7c-2.9,5.1-7.4,11.5-13,9.6c-0.7,16.4-1.4,32.7-2.1,49.1c-0.3,8-0.6,16.5,3,23.6&#10;&#9;&#9;&#9;&#9;C945.7,862.1,959.7,866.9,972.6,868.7z"/>
			<path fill="#EEE1CE" d="M946.8,650.8c-10.5-15.8-23.6-30-38.5-41.8c-10.8-8.5-23.6-16.1-37.3-15c-7.7,0.6-14.8,4-21.3,8.1&#10;&#9;&#9;&#9;&#9;c-11.1,7-21.1,17-24.8,29.7s0.8,28.1,12.4,34.4c-17.4,12.6-16.4,43.4,1.9,54.8c-10.4,12.3-8.1,33.2,4.8,42.9&#10;&#9;&#9;&#9;&#9;c-8.6,21.2,9.5,46.6,32.1,50.5c22.5,3.9,45.3-9.5,58.8-28c13.4-18.5,19.1-41.4,23.4-63.9c2.8-14.5,5.1-29.5,1.7-43.8&#10;&#9;&#9;&#9;&#9;C957.6,668.6,952.5,659.4,946.8,650.8z"/>
			<path fill="#EEE1CE" d="M1083.8,618.7c4.1,1.3,8.4-0.8,12.4-2.4c12-4.6,26.5-3.9,36.6,4c10.1,7.9,13.9,23.8,6.5,34.3&#10;&#9;&#9;&#9;&#9;c10.1-5.3,24.3,0.3,28.1,11.1s-4,24-15.3,26c11.7,0.3,22.3,10.7,22.9,22.4s-8.9,23-20.5,24.6c13.7,5.6,20.7,23.7,14.4,37.1&#10;&#9;&#9;&#9;&#9;c-6.3,13.4-24.7,19.6-37.8,12.6c8.1,8.1,5,23.3-4.4,29.8s-22.6,5.3-32.6-0.4c-3,8.8-12.1,15.1-21.4,14.7&#10;&#9;&#9;&#9;&#9;c-9.3-0.4-17.9-7.4-20.2-16.4c-7.4,6.9-20.4,3.2-26.6-4.8c-6.2-8.1-7.4-18.7-8.3-28.9c-4.4-50.4-5.6-103.9,18.2-148.6&#10;&#9;&#9;&#9;&#9;c4-7.5,8.9-14.9,16.1-19.5s17.1-5.8,24.1-0.9C1078.7,615.3,1080.8,617.8,1083.8,618.7z"/>
			<path fill="#F4A987" d="M287.2,758.3c-0.3,0.6,0.9,0.1,0.9-0.6c0-7.6-2.6-14.9-3.8-22.4c-2.1-12.4-0.4-25.2,2.1-37.5&#10;&#9;&#9;&#9;&#9;c2.4-12.3,5.6-24.7,3.9-37.1c-0.2-1.3-0.5-2.7-1.6-3.5c-0.8-0.6-1.8-0.7-2.8-0.6c-4.6,0.4-8,4.2-11.8,6.9s-9.7,4-12.5,0.3&#10;&#9;&#9;&#9;&#9;c-0.8-1.1-1.2-2.4-1.5-3.7c-1.4-5.1-2.8-10.1-3.6-15.3c-1.5-9.2-1.2-18.7-2.7-28c-1.1-6.7-3.1-13.2-5.9-19.4&#10;&#9;&#9;&#9;&#9;c-5.3-11.3-14.9-21.9-27.3-22.7c-8.7-0.5-17,3.9-23.6,9.7c-15.4,13.4-23.3,34-24.6,54.3c-1.2,20.4,3.7,40.7,10.7,59.8&#10;&#9;&#9;&#9;&#9;c5.3,14.3,11.9,28.4,22.1,39.7c6.8,7.5,12.8,16,19.6,23.5c6.8,7.5,14.9,14.2,24.6,17.1c9.7,2.9,21.1,1.5,28.4-5.4&#10;&#9;&#9;&#9;&#9;C282.3,769.2,285.8,764.3,287.2,758.3z"/>
			<path fill="#7CCFCB" d="M367.1,1382.1c-12.3-91.7,15.7-297.4,24.5-369.5c7.1-58.5,17.3-117.6,42.9-170.6s68.8-100,124.8-118.4&#10;&#9;&#9;&#9;&#9;c6.4,20.5,15.8,44,34,55.4c34.1,21.4,89.1-4.9,114.1,26.6c8.8,11.1,10.4,26.2,11.6,40.4c6.1,68.1,28.7,133.3,37.2,201.2&#10;&#9;&#9;&#9;&#9;c13.3,105.6,25.1,320.1,82.1,357.9c-22.1,39-14.7-63.7-48.9-34.6c-33.9,28.8-72,56.7-116.3,61.1c-32,3.2-64.1-3.7-95.5-10.5&#10;&#9;&#9;&#9;&#9;c-39.2-8.5-78.9-17.1-114.8-35.1S372.4,1421.9,367.1,1382.1z"/>
			<path fill="#9CE2DD" d="M652.5,830.1c-24.3,4.3-50.6,6.2-72.6-5c-6-3.1-11.7-7.3-14.6-13.3c-3.1-6.3-2.8-13.7-4.1-20.6&#10;&#9;&#9;&#9;&#9;c-1.8-9.1-6.4-17.3-8.7-26.3c-1.5-6.2-1.9-12.7-2.9-19c-0.9-5.3-2.3-10.8-6-14.9c-3.6-4-9.9-6.1-14.6-3.5&#10;&#9;&#9;&#9;&#9;c-3.3,1.9-5.3,5.6-5.9,9.4s-0.1,7.6,0.4,11.4c3.2,25.2,4.3,51.2,14.6,74.4c2.4,5.5,5.3,10.7,8.4,15.8c2.4,4.1,4.9,8.1,8.3,11.4&#10;&#9;&#9;&#9;&#9;c3.4,3.4,7.7,6,12.1,7.9c11.9,5.3,25.2,6.7,38.2,7.4c12.6,0.7,25.4,0.7,37.8-1.7c12.4-2.4,24.5-7.5,33.8-16&#10;&#9;&#9;&#9;&#9;c12.3-11.4,18.6-27.9,22.4-44.2c0.8-3.6,1.6-7.4,0.6-11c-1-3.6-4.1-6.9-7.8-6.7c-5,0.2-7.7,5.6-9.4,10.3&#10;&#9;&#9;&#9;&#9;c-1.7,4.7-3.5,9.4-5.2,14.1c-1.8,4.8-3.7,9.9-7.4,13.4C665.2,827.6,658.7,829,652.5,830.1z"/>
			<path fill="#ED9A7A" d="M624.4,844.9c18.5-0.7,38.6-4.2,51.2-17.7c18.2-19.4,13.8-50.1,8.2-76.1c-1.5-7.1-3.1-14.3-4.6-21.4&#10;&#9;&#9;&#9;&#9;c-19.7-4.8-39.6-9.6-57.8-18.6c-18.2-9-34.7-22.6-43.5-40.9c-5.5-11.4-7.8-24.5-15.5-34.6c-8.1-10.7-21.9-16.8-35.2-15.6&#10;&#9;&#9;&#9;&#9;c3.5,42.1,7.1,84.2,10.6,126.4c1.4,16.9,2.9,33.9,8.3,50s15.2,31.2,29.8,39.8C590.3,844.4,607.8,845.5,624.4,844.9z"/>
			<path fill="#F4A987" d="M745.9,453.5c26.9,57.4,39.9,121.3,37.5,184.6c-1,28-5.4,56.9-20.9,80.2c-22.7,34.1-67.7,50.1-108,42.9&#10;&#9;&#9;&#9;&#9;c-40.4-7.2-75.4-35.2-96.1-70.7c-10.2-17.5-17.4-37.3-17.1-57.5l-0.1-4c-15.4,5.7-33.9,1.3-45.1-10.7&#10;&#9;&#9;&#9;&#9;c-11.2-12-14.3-30.8-7.6-45.7c3.1-6.9,8.3-13.1,15.3-16c7-2.9,15.8-1.8,21.1,3.6c7-47.2,37.9-90.1,80.6-111.1&#10;&#9;&#9;&#9;&#9;c31-15.2,67.4-19.1,101-10.8C718.7,441.4,734.9,447.6,745.9,453.5z"/>
			<path fill="#F4A987" d="M872.3,535.8c-24.1,51.5-35.8,108.8-33.7,165.6c0.9,25.1,4.8,51.1,18.7,72c20.4,30.6,60.7,45,96.9,38.5&#10;&#9;&#9;&#9;&#9;c36.2-6.5,67.6-31.6,86.2-63.4c9.2-15.7,15.6-33.5,15.3-51.6l0.1-3.6c13.8,5.1,30.5,1.2,40.5-9.6s12.8-27.6,6.8-41&#10;&#9;&#9;&#9;&#9;c-2.8-6.2-7.5-11.8-13.8-14.3s-14.2-1.6-18.9,3.3c-6.3-42.3-34-80.9-72.4-99.7c-27.8-13.7-60.5-17.1-90.6-9.7&#10;&#9;&#9;&#9;&#9;C896.7,524.9,882.2,530.5,872.3,535.8z"/>
			<path fill="#EEE1CE" d="M744.9,410.5c4.6-6.9,8.3-14.5,11-22.4c1.1-3.4-2.2-6.6-5.5-5.2c-19.5,7.8-42.4,5.2-63.7,2.2&#10;&#9;&#9;&#9;&#9;c-20.6-2.9-41.2-5.8-61.8-8.7c-19.8-2.8-40.4-5.6-59.7,0.1c-15.4,4.5-29.8,15.9-35.1,30.6c-5.7-0.5-11.3,0-16.6,2.4&#10;&#9;&#9;&#9;&#9;c-9.9,4.4-16.3,14-21.2,23.6c-19.7,38.4-22.6,85-8,125.6c5.5,15.3,14.8,31,30.1,36.5c19.2,7,41.2-5.2,51.9-22.5&#10;&#9;&#9;&#9;&#9;c10.7-17.4,12.7-38.6,13.9-59c0.6-11.6,1.1-23.4,0.4-35.1c1,0.1,1.9-0.1,2.8-0.6c42.6,20.5,93,24.1,138,9.8&#10;&#9;&#9;&#9;&#9;c11.2-3.5,22.2-8.3,30.9-16.1c14.8-13.5,20.3-33.9,22.5-54c0.3-3.1-2.8-5.6-5.7-4.4c-6.2,2.6-13.3,3.6-20.3,4.1&#10;&#9;&#9;&#9;&#9;C745.1,417.5,742.9,413.5,744.9,410.5z"/>
			<path fill="#F2895F" d="M890,724.9c6.7,1.9,14,2.1,20.8,0.5c1.6-0.4,3.3-0.9,4.6-1.9c2.9-2.3,3.2-6.5,3-10.2&#10;&#9;&#9;&#9;&#9;c-0.5-13.4-4.1-27.6-13.1-37.2c-1.8-1.9-5.1-1.2-6.1,1.2c-4.9,12.6-9.3,25.3-13.3,38.2c-0.7,2.4-1.4,5.2,0.1,7.1&#10;&#9;&#9;&#9;&#9;C887,723.9,888.5,724.5,890,724.9z"/>
			<path fill="#EEE1CE" d="M760.2,647.3c-21.5-5.8-45-4.2-65.4,4.9c-11.7,5.2-22.5,12.7-35.1,15.2c-17.5,3.5-36.7-4.4-46.7-19.1&#10;&#9;&#9;&#9;&#9;c-4-5.8-6.6-12.5-9.9-18.7c-7.1-13.2-19.2-25.1-34.1-26.4c-13.6-1.2-24.9,13.6-28.1,26.2c0.2-0.1,0.3-0.1,0.5-0.2l0.1,4&#10;&#9;&#9;&#9;&#9;c-0.3,20.3,6.9,40.1,17.1,57.5c20.7,35.4,55.7,63.5,96.1,70.7c40.4,7.2,85.3-8.8,108-42.9c15.1-22.7,19.6-50.9,20.8-78.2&#10;&#9;&#9;&#9;&#9;C777.4,646.5,768.7,649.6,760.2,647.3z"/>
			<path fill="#67BAB4" d="M463.3,768.7c11.9-1.1,24.1-0.3,35.3,4c35.8,13.6,50.4,59.7,40.3,96.7c-10,37-38.2,66.1-67,91.3&#10;&#9;&#9;&#9;&#9;C446.4,983,419,1004,387.3,1016s-68.4,14-98.8-1.1c-35-17.4-56.2-54-70.3-90.4c-23.8-61.4-33.6-128.2-28.4-193.8&#10;&#9;&#9;&#9;&#9;c33.9-2.2,67.7-4.3,101.6-6.5c5.4,33.1,15.9,65.4,30.8,95.4c6.9,13.9,17.1,28.9,32.6,30.3c13.6,1.2,25.8-9,33.3-20.4&#10;&#9;&#9;&#9;&#9;s12.3-24.6,21-35.2C422.2,778.5,442.8,770.6,463.3,768.7z"/>
			<path fill="#EEE1CE" d="M920.9,489.7c3.6,3.2,6.7,7.1,7.7,11.8c1,4.5,0,9.1-1.2,13.6c-11.3,43.8-34.7,84.5-66.8,116.4&#10;&#9;&#9;&#9;&#9;c-7.4,7.3-19.1,14.4-27.3,7.9c-3.4-2.7-4.9-7.1-6.1-11.2c-7-24.3-8.4-50.2-4.2-75.1c3.9-23.4,13.6-47,32.3-61.6&#10;&#9;&#9;&#9;&#9;S903.1,474,920.9,489.7z"/>
			<path fill="#EEE1CE" d="M976.4,472.8c0,0-44.5,5.3-56.9,34.7c-12.5,29.4,13.3,94.3,63.2,128.1c49.8,33.8,102.3,1.8,120.1-19.6&#10;&#9;&#9;&#9;&#9;S1115.2,463.9,976.4,472.8z"/>
			<path fill="#56493D" d="M954,715.5c-25.7,0-46.7-22.1-46.7-49.2s20.9-49.2,46.7-49.2c25.7,0,46.7,22.1,46.7,49.2&#10;&#9;&#9;&#9;&#9;S979.7,715.5,954,715.5z M954,624.3c-21.8,0-39.5,18.9-39.5,42.1s17.7,42.1,39.5,42.1s39.5-18.9,39.5-42.1S975.8,624.3,954,624.3&#10;&#9;&#9;&#9;&#9;z"/>
			<path fill="#F4A987" d="M992.5,1157.2c-2.6,1.7-3.4,5-3.5,8.1c-0.4,8.8,3.4,17.7,9.9,23.7c-9.9,3.7-20.6,6.1-31.1,5.2&#10;&#9;&#9;&#9;&#9;c-15.5-1.5-29.3-10.1-44.4-13.9c-7.2-1.8-16.9-1.3-19.2,5.8c-1.4,4.3,0.9,9,3.6,12.6c18.5,25.6,53.4,32.7,84.9,33.2&#10;&#9;&#9;&#9;&#9;c14.7,0.2,29.8-0.6,43.5-5.9s26.1-15.9,30.4-30c0.9-2.8,1.4-5.9,0.7-8.8c-1.5-6-8.1-11-6.4-17c-20.7,2.8-40.2-9.9-60.8-13.5&#10;&#9;&#9;&#9;&#9;C997.6,1156,994.7,1155.8,992.5,1157.2z"/>
			<path fill="#E0A94F" d="M1181.3,891.8c-9.8-20.4-21.8-40.4-39.1-55c-17.3-14.6-40.9-23.2-63-18.3c-22.1,4.9-41.2,25.4-40,48.1&#10;&#9;&#9;&#9;&#9;c2,38.3,19.1,73.3,41.1,104.7c6.2,8.9,13.1,17.4,19.1,26.4c6.7,9.9,12.4,20.5,18.1,31c3.4,6.3,6.8,12.6,8.7,19.5&#10;&#9;&#9;&#9;&#9;c4.9,18.2-1.8,37.8-12.3,53.4c-17.8,26.5-47,44.8-78.4,50.1c0.6,2.7,1,5.4,1.5,8.1c3.8,21.1,12.5,41,22.2,60.1&#10;&#9;&#9;&#9;&#9;c0.4,0.8,0.8,1.6,1.2,2.5c28-6.6,55.6-15.1,80.7-29c30-16.7,56.4-42,68.4-74.1c7.3-19.3,9.1-40.3,9.2-61&#10;&#9;&#9;&#9;&#9;C1219,1000.8,1206.1,943.4,1181.3,891.8z"/>
			<path fill="#F4A987" d="M1097.5,912.4c21.3-1.3,35.3-22.8,42.3-42.9c3.4-9.8,6.1-19.9,7.9-30.1c2.1-11.8-3.9-23.5-14.6-28.9&#10;&#9;&#9;&#9;&#9;c-19.2-9.8-40.9-14.8-62.5-14.5c-13.8,0.2-25.4,11.1-26.3,24.9c-1.2,17.8,1.4,35.8,7.6,52.5&#10;&#9;&#9;&#9;&#9;C1059.4,893.4,1076.1,913.6,1097.5,912.4z"/>
			<path fill="#7C582C" d="M617.5,550.5c-0.4,0-0.8-0.1-1.2-0.2c-1.9-0.7-2.8-2.7-2.2-4.5c2.6-7.4,8.5-13.5,15.8-16.5&#10;&#9;&#9;&#9;&#9;c6.4-2.6,13.8-2.7,20.3-0.3c0.9,0,1.8,0.2,2.5,0.9l0.8,0.7c1.3,1.2,1.6,3.2,0.6,4.6c-1,1.5-2.9,2-4.5,1.2&#10;&#9;&#9;&#9;&#9;c-5.3-2.6-11.6-2.8-17-0.6c-5.4,2.2-9.8,6.8-11.8,12.3C620.4,549.6,619,550.5,617.5,550.5z"/>
			<path fill="#7C582C" d="M756.8,529.4c-0.8,0-1.7-0.3-2.4-0.9c-6.8-6.1-17.3-7.7-25.6-3.9c-1.8,0.8-3.9,0-4.7-1.8&#10;&#9;&#9;&#9;&#9;c-0.8-1.8,0-3.9,1.8-4.7c10.8-4.9,24.5-2.8,33.3,5.1c1.5,1.3,1.6,3.6,0.3,5C758.7,529,757.8,529.4,756.8,529.4z"/>
			<path fill="#7C582C" d="M639.9,582c-1.4,0-2.8-0.9-3.3-2.3c-1.7-4.7-0.9-10.3,2.2-14.3c3.5-4.5,9.7-6.8,15.5-5.6&#10;&#9;&#9;&#9;&#9;c5.5,1.1,10.2,5.2,12.3,10.6c0.7,1.8-0.2,3.9-2,4.6c-1.8,0.7-3.9-0.2-4.6-2c-1.2-3.1-4-5.5-7.1-6.2c-3.1-0.6-6.6,0.6-8.4,3&#10;&#9;&#9;&#9;&#9;c-1.6,2.1-2,5.1-1.1,7.5c0.7,1.8-0.3,3.9-2.1,4.6C640.7,581.9,640.3,582,639.9,582z"/>
			<path fill="#7C582C" d="M727.4,569.2c-1.8,0-3.4-1.4-3.5-3.2c-0.5-5,1.8-10.2,5.9-13.2c4.6-3.5,11.2-4,16.4-1.4&#10;&#9;&#9;&#9;&#9;c5,2.5,8.5,7.7,9.1,13.4c0.2,2-1.2,3.7-3.2,3.9c-2,0.2-3.7-1.2-3.9-3.2c-0.4-3.3-2.4-6.4-5.2-7.8c-2.8-1.4-6.5-1.1-8.9,0.7&#10;&#9;&#9;&#9;&#9;c-2.1,1.6-3.3,4.4-3.1,6.9c0.2,2-1.3,3.7-3.2,3.9C727.6,569.2,727.5,569.2,727.4,569.2z"/>
			<path fill="#7C582C" d="M874.6,670c-1.9,0-3.5-1.5-3.6-3.4c-0.2-3.3-2.1-6.5-4.8-8.1c-2.7-1.6-6.4-1.5-8.9,0.2&#10;&#9;&#9;&#9;&#9;c-2.1,1.5-3.5,4.2-3.4,6.8c0.1,2-1.5,3.6-3.4,3.7c-2,0.1-3.6-1.5-3.7-3.4c-0.2-5,2.4-10.1,6.6-12.9c4.7-3.2,11.4-3.4,16.4-0.5&#10;&#9;&#9;&#9;&#9;c4.9,2.8,8.1,8.1,8.4,13.9c0.1,2-1.4,3.6-3.4,3.7C874.7,670,874.6,670,874.6,670z"/>
			<path fill="#7C582C" d="M960.9,673.8c-1.9,0-3.5-1.5-3.6-3.4c-0.2-3.3-2.1-6.5-4.8-8.1c-2.7-1.6-6.4-1.5-8.9,0.2&#10;&#9;&#9;&#9;&#9;c-2.1,1.5-3.5,4.2-3.4,6.8c0.1,2-1.5,3.6-3.4,3.7c-2,0.1-3.6-1.5-3.7-3.4c-0.2-5,2.4-10.1,6.6-12.9c4.7-3.2,11.4-3.4,16.4-0.5&#10;&#9;&#9;&#9;&#9;c4.9,2.8,8.1,8.1,8.4,13.9c0.1,2-1.4,3.6-3.4,3.7C961,673.7,961,673.8,960.9,673.8z"/>
			<path fill="#F4A987" d="M753.2,678.8c-0.9-3.7-4-6.4-7.8-7.1c-12.7-2.1-26.1,1.1-38.8,4.4c-7.4,1.9-14.8,3.8-22.1,5.7&#10;&#9;&#9;&#9;&#9;c-7,1.8-11.8,8.4-10.8,15.5c0,0.1,0,0.1,0,0.2c1.8,12.6,2.6,13.1,6.7,19.6c1.2,1.4,2.6,2.7,4.1,3.8c5.6,4.2,12.6,5.9,19.5,6.6&#10;&#9;&#9;&#9;&#9;c12.1,1.2,24.9-0.8,34.7-7.9C751,710.5,756.8,693.6,753.2,678.8z"/>
			<path fill="#F2895F" d="M729.1,621.4c-6.8,3.6-14.5,5.5-22.3,5.4c-1.8,0-3.7-0.2-5.4-1c-3.6-1.8-4.9-6.3-5.6-10.3&#10;&#9;&#9;&#9;&#9;c-2.6-14.7-2.1-30.9,5.6-43.4c1.5-2.4,5-2.4,6.5-0.1c8.3,12.5,16.1,25.2,23.4,38.3c1.3,2.4,2.7,5.2,1.5,7.7&#10;&#9;&#9;&#9;&#9;C732.2,619.7,730.6,620.6,729.1,621.4z"/>
			<path fill="#FFFFFF" d="M746.8,672.1c-0.5-0.1-0.9-0.3-1.4-0.3c-12.7-2.1-26.1,1.1-38.8,4.4c-7.4,1.9-14.8,3.8-22.1,5.7&#10;&#9;&#9;&#9;&#9;c-1.6,0.4-3,1.1-4.3,1.9c4.2,5.3,11.1,8.5,17.8,10.4c11.7,3.4,25.3,3.9,35.3-3.2c3.1-2.3,5.8-5.2,8-8.4&#10;&#9;&#9;&#9;&#9;C743.4,679.3,745.3,675.8,746.8,672.1z"/>
			<path fill="#56493D" d="M891.7,658.7c-0.6-1.3-0.6-2.7,0.1-3.9c1.1-1.9,3.6-3,5.6-3.2c4.4-0.4,9,0.2,13.1,1.8l-1.9,5&#10;&#9;&#9;&#9;&#9;c-3.4-1.3-7.1-1.8-10.8-1.5c-0.7,0.1-1.3,0.4-1.5,0.6c0.2-0.2,0.3-0.7,0.1-1.1L891.7,658.7z"/>
			<path fill="#56493D" d="M997.1,651.6c-2.4,0-4.7-1.4-5.7-3.7c-1.4-3.1,0-6.8,3.2-8.2c14.3-6.3,33.2-13.8,53.2-15.5&#10;&#9;&#9;&#9;&#9;c21.2-1.8,40.7,3.3,55.1,14.3c2.7,2.1,3.2,6,1.1,8.7c-2.1,2.7-6,3.2-8.7,1.1c-11.9-9.1-28.3-13.3-46.4-11.7&#10;&#9;&#9;&#9;&#9;c-18,1.5-35,8.2-49.2,14.5C998.8,651.4,997.9,651.6,997.1,651.6z"/>
			<path fill="#FFFFFF" d="M957.6,768c-5.6,6-12.6,8.3-19.5,9.6c-7.7,1.4-15.7,1.5-22.8-2.8c-7.1-4.3-13.2-13.8-13.7-25.1&#10;&#9;&#9;&#9;&#9;c22.4-3.6,44.9-5,67.4-4.1C966.4,754.2,962.8,762.4,957.6,768z"/>
			<path fill="#AA9987" d="M570.1,629.2c-0.6-1.7-1.3-3.3-2.4-4.7c-0.6-0.8-1.5-1.2-2.4-0.6c-0.8,0.5-1.2,1.6-0.6,2.4&#10;&#9;&#9;&#9;&#9;c0.9,1.2,1.5,2.5,2,3.8C567.4,632.3,570.8,631.4,570.1,629.2z"/>
			<path fill="#AA9987" d="M586.6,633.9c-0.1-1-0.7-1.8-1.8-1.8c-0.9,0-1.9,0.8-1.8,1.8c0.2,1.8,0.5,3.6,0.7,5.3&#10;&#9;&#9;&#9;&#9;c0.1,1,0.7,1.8,1.8,1.8c0.9,0,1.9-0.8,1.8-1.8C587.1,637.4,586.9,635.6,586.6,633.9z"/>
			<path fill="#AA9987" d="M559.8,647.7c-0.6-1.4-1.1-2.8-1.7-4.2c-0.4-0.9-1.2-1.5-2.2-1.2c-0.9,0.2-1.6,1.3-1.2,2.2&#10;&#9;&#9;&#9;&#9;c0.6,1.4,1.1,2.8,1.7,4.2c0.4,0.9,1.2,1.5,2.2,1.2C559.4,649.7,560.1,648.6,559.8,647.7z"/>
			<path fill="#AA9987" d="M565.7,668.6c-1.2-2-2.4-3.9-3.6-5.9c-1.2-2-4.3-0.2-3.1,1.8c1.2,2,2.4,3.9,3.6,5.9&#10;&#9;&#9;&#9;&#9;C563.8,672.3,566.9,670.5,565.7,668.6z"/>
			<path fill="#AA9987" d="M579,653.6c-0.4-1.2-0.9-2.4-1.3-3.5c-0.3-0.9-1.2-1.5-2.2-1.2c-0.9,0.2-1.6,1.3-1.2,2.2&#10;&#9;&#9;&#9;&#9;c0.4,1.2,0.9,2.4,1.3,3.5c0.3,0.9,1.2,1.5,2.2,1.2C578.6,655.5,579.3,654.5,579,653.6z"/>
			<path fill="#AA9987" d="M588.3,676.9c-0.6-1.4-1.3-2.7-1.9-4.1c-0.4-0.9-1.7-1.1-2.4-0.6c-0.9,0.5-1.1,1.6-0.6,2.4&#10;&#9;&#9;&#9;&#9;c0.6,1.4,1.3,2.7,1.9,4.1c0.4,0.9,1.7,1.1,2.4,0.6C588.5,678.8,588.7,677.7,588.3,676.9z"/>
			<path fill="#AA9987" d="M606.9,667.8c-0.6-1.6-1.3-3.1-1.9-4.7c-0.4-0.9-1.2-1.5-2.2-1.2c-0.9,0.2-1.6,1.3-1.2,2.2&#10;&#9;&#9;&#9;&#9;c0.6,1.6,1.3,3.1,1.9,4.7c0.4,0.9,1.2,1.5,2.2,1.2C606.5,669.7,607.2,668.7,606.9,667.8z"/>
			<path fill="#AA9987" d="M581.2,698.2c-0.6-1.4-0.9-2.9-1-4.4c-0.1-2.3-3.7-2.3-3.6,0c0.1,2.2,0.6,4.2,1.5,6.2&#10;&#9;&#9;&#9;&#9;c0.4,0.9,1.7,1.1,2.4,0.6C581.5,700.1,581.6,699.1,581.2,698.2z"/>
			<path fill="#AA9987" d="M603.4,701.4c-1.1-1.3-1.7-2.9-1.9-4.6c-0.1-1-1.3-1.5-2.2-1.2c-1,0.3-1.4,1.2-1.2,2.2&#10;&#9;&#9;&#9;&#9;c0.3,2.3,1.4,4.4,2.8,6.1c0.6,0.8,1.9,0.6,2.5,0C604.2,703.2,604,702.2,603.4,701.4z"/>
			<path fill="#AA9987" d="M620.8,680.3c-0.1-0.2-0.3-0.4-0.4-0.6c0-0.1-0.1-0.1-0.1-0.1c0.1-0.8-0.5-1.6-1.3-1.8&#10;&#9;&#9;&#9;&#9;c-1-0.3-1.9,0.3-2.2,1.2c-0.2,0.7-0.2,1.4,0.2,2c0,0,0,0,0,0c-0.2,0.6-0.2,1.2,0.1,1.7c0.6,0.9,1.4,1.3,2.4,1.1&#10;&#9;&#9;&#9;&#9;c1.1-0.2,1.6-1.3,1.6-2.3C621.2,681.2,621,680.7,620.8,680.3z"/>
			<path fill="#AA9987" d="M622.7,707.1c-0.8-1.1-1.4-2.4-1.6-3.8c-0.1-1-0.7-1.8-1.8-1.8c-0.9,0-1.9,0.8-1.8,1.8&#10;&#9;&#9;&#9;&#9;c0.2,2,0.9,3.9,2.1,5.6c0.6,0.8,1.5,1.2,2.4,0.6C622.9,709,623.3,707.8,622.7,707.1z"/>
			<path fill="#AA9987" d="M606.1,726.1c-1.1-2.3-1.8-4.7-2.3-7.3c-0.4-2.3-3.8-1.3-3.4,0.9c0.5,2.8,1.4,5.5,2.6,8.1&#10;&#9;&#9;&#9;&#9;C604,729.9,607.1,728.1,606.1,726.1z"/>
			<path fill="#AA9987" d="M624.7,732.4c-0.7-1.7-1.4-3.5-2.1-5.2c-0.4-0.9-1.2-1.5-2.2-1.2c-0.9,0.2-1.6,1.3-1.2,2.2&#10;&#9;&#9;&#9;&#9;c0.7,1.7,1.4,3.5,2.1,5.2c0.4,0.9,1.2,1.5,2.2,1.2C624.3,734.4,625.1,733.3,624.7,732.4z"/>
			<path fill="#AA9987" d="M644.2,713.4c-1-0.8-1.9-1.8-2.4-2.9c-0.4-0.9-1.2-1.5-2.2-1.2c-0.8,0.2-1.6,1.3-1.2,2.2&#10;&#9;&#9;&#9;&#9;c0.7,1.8,1.8,3.3,3.3,4.5c0.8,0.6,1.8,0.8,2.5,0C644.9,715.3,645,714,644.2,713.4z"/>
			<path fill="#AA9987" d="M647.6,689.3c-0.7-1.4-1-2.9-0.9-4.5c0.1-2.3-3.4-2.3-3.6,0c-0.1,2.2,0.4,4.3,1.4,6.3&#10;&#9;&#9;&#9;&#9;C645.5,693.2,648.6,691.4,647.6,689.3z"/>
			<path fill="#AA9987" d="M645.5,739c-1.1-2.3-2.1-4.7-3.2-7c-0.9-2.1-4-0.3-3.1,1.8c1.1,2.3,2.1,4.7,3.2,7&#10;&#9;&#9;&#9;&#9;C643.4,742.9,646.4,741.1,645.5,739z"/>
			<path fill="#AA9987" d="M664.8,723.1c-1-1.8-1.9-3.6-2.9-5.4c-1.1-2-4.2-0.2-3.1,1.8c1,1.8,1.9,3.6,2.9,5.4&#10;&#9;&#9;&#9;&#9;C662.9,726.9,665.9,725.1,664.8,723.1z"/>
			<path fill="#AA9987" d="M666.9,698.6c-0.6-2-1-3.9-1.1-6c-0.1-2.3-3.7-2.3-3.6,0c0.1,2.4,0.5,4.7,1.2,6.9&#10;&#9;&#9;&#9;&#9;C664.2,701.7,667.7,700.8,666.9,698.6z"/>
			<path fill="#AA9987" d="M689.1,669.2c-0.6-1.4-1.3-2.7-1.9-4.1c-0.4-0.9-1.7-1.1-2.4-0.6c-0.9,0.5-1.1,1.6-0.6,2.4&#10;&#9;&#9;&#9;&#9;c0.6,1.4,1.3,2.7,1.9,4.1c0.4,0.9,1.7,1.1,2.4,0.6C689.3,671.1,689.5,670,689.1,669.2z"/>
			<path fill="#AA9987" d="M712.9,662c-0.8-1.2-1.2-2.5-1-4c0.2-1-0.2-1.9-1.2-2.2c-0.9-0.2-2,0.3-2.2,1.2c-0.4,2.4,0,4.7,1.3,6.7&#10;&#9;&#9;&#9;&#9;C711.1,665.7,714.1,663.9,712.9,662z"/>
			<path fill="#AA9987" d="M738.9,659c-0.4-1.4-0.8-2.8-1.2-4.1c-0.6-2.2-4.1-1.3-3.4,0.9c0.4,1.4,0.8,2.8,1.2,4.1&#10;&#9;&#9;&#9;&#9;C736.1,662.1,739.6,661.2,738.9,659z"/>
			<path fill="#AA9987" d="M761.7,660.5v5.9c0,2.3,3.6,2.3,3.6,0v-5.9C765.3,658.2,761.7,658.2,761.7,660.5z"/>
			<path fill="#AA9987" d="M769.9,681.9c-1,0-1.7,0.8-1.8,1.8c-0.2,1.8-0.4,3.6-0.5,5.3c-0.1,1,0.9,1.8,1.8,1.8c1,0,1.7-0.8,1.8-1.8&#10;&#9;&#9;&#9;&#9;c0.2-1.8,0.4-3.6,0.5-5.3C771.8,682.7,770.8,681.9,769.9,681.9z"/>
			<path fill="#AA9987" d="M758.1,708.7c-0.5,2-1.1,4-1.6,6c-0.6,2.2,2.8,3.2,3.4,0.9c0.5-2,1.1-4,1.6-6&#10;&#9;&#9;&#9;&#9;C762.1,707.4,758.7,706.4,758.1,708.7z"/>
			<path fill="#AA9987" d="M738.6,729.3c-0.2-2.3-3.7-2.3-3.6,0c0.1,1.6-0.2,3-1,4.4c-1.2,2,1.9,3.8,3.1,1.8&#10;&#9;&#9;&#9;&#9;C738.3,733.7,738.8,731.5,738.6,729.3z"/>
			<path fill="#AA9987" d="M713.6,741.3c-0.9-0.2-2,0.3-2.2,1.2c-0.2,1.2-0.5,2.4-0.7,3.5c-0.2,0.9,0.3,1.9,1.2,2.2&#10;&#9;&#9;&#9;&#9;c0.9,0.2,2-0.3,2.2-1.2c0.2-1.2,0.5-2.4,0.7-3.5C715,742.5,714.6,741.5,713.6,741.3z"/>
			<path fill="#AA9987" d="M688.7,736.6c-0.6-1.6-1.2-3.2-1.8-4.7c-0.3-0.9-1.2-1.5-2.2-1.2c-0.9,0.2-1.6,1.3-1.2,2.2&#10;&#9;&#9;&#9;&#9;c0.6,1.6,1.2,3.2,1.8,4.7c0.3,0.9,1.2,1.5,2.2,1.2C688.3,738.5,689.1,737.5,688.7,736.6z"/>
			<path fill="#F99573" d="M858,706.6c-19,0-19,29.5,0,29.5S877.1,706.6,858,706.6z"/>
			<path fill="#AA9987" d="M664.4,757.3c-0.5-1.8-0.9-3.5-1.4-5.3c-0.6-2.2-4-1.3-3.4,0.9c0.5,1.8,0.9,3.5,1.4,5.3&#10;&#9;&#9;&#9;&#9;C661.6,760.5,665,759.6,664.4,757.3z"/>
			<path fill="#AA9987" d="M691.9,759.1c-0.6-2-1.3-3.9-1.9-5.9c-0.7-2.2-4.1-1.2-3.4,0.9c0.6,2,1.3,3.9,1.9,5.9&#10;&#9;&#9;&#9;&#9;C689.2,762.2,692.6,761.2,691.9,759.1z"/>
			<path fill="#AA9987" d="M635.5,753.7c-0.8-2.5-1.3-5.1-1.4-7.8c-0.1-2.3-3.6-2.3-3.6,0c0.1,3,0.6,5.9,1.5,8.7&#10;&#9;&#9;&#9;&#9;C632.8,756.8,636.2,755.9,635.5,753.7z"/>
			<path fill="#AA9987" d="M563.1,691.5c-0.3-1.8-0.5-3.5-0.8-5.3c-0.1-1-1.3-1.5-2.2-1.2c-1,0.3-1.4,1.2-1.2,2.2&#10;&#9;&#9;&#9;&#9;c0.3,1.8,0.5,3.5,0.8,5.3c0.1,1,1.3,1.5,2.2,1.2C562.8,693.4,563.2,692.5,563.1,691.5z"/>
			<path fill="#AA9987" d="M553.9,624.7c-0.7-1.6-1.5-3.2-2.2-4.8c-0.4-0.9-1.7-1.1-2.4-0.6c-0.9,0.5-1,1.6-0.6,2.4&#10;&#9;&#9;&#9;&#9;c0.7,1.6,1.5,3.2,2.2,4.8c0.4,0.9,1.7,1.1,2.4,0.6C554.1,626.6,554.3,625.6,553.9,624.7z"/>
			<path fill="#AA9987" d="M582,615c-0.4-1.8-0.8-3.6-1.2-5.3c-0.5-2.2-3.9-1.3-3.4,0.9c0.4,1.8,0.8,3.6,1.2,5.3&#10;&#9;&#9;&#9;&#9;C579.1,618.2,582.5,617.2,582,615z"/>
			<path fill="#F99573" d="M997.1,704.6c-21.7,0-21.7,33.6,0,33.6S1018.8,704.6,997.1,704.6z"/>
			<path fill="#56493D" d="M852.7,708c-24,0-43.4-22.1-43.4-49.2c0-27.1,19.5-49.2,43.4-49.2c24,0,43.4,22.1,43.4,49.2&#10;&#9;&#9;&#9;&#9;C896.2,685.9,876.7,708,852.7,708z M852.7,616.8c-20,0-36.3,18.9-36.3,42.1c0,23.2,16.3,42.1,36.3,42.1c20,0,36.3-18.9,36.3-42.1&#10;&#9;&#9;&#9;&#9;C889.1,635.6,872.8,616.8,852.7,616.8z"/>
			<path fill="#AA9987" d="M531.4,429c-19.9,4.8-24.9,31.7-28.2,48.6c-4.7,24-3.2,49,3,72.6c0.6,2.2,4,1.3,3.4-0.9&#10;&#9;&#9;&#9;&#9;c-5.4-20.3-6.8-41-4.4-61.9c2-17.2,6.9-50.1,27.1-54.9C534.6,431.9,533.6,428.5,531.4,429z"/>
			<path fill="#AA9987" d="M523.9,420.1c-20-1.1-30.6,29.9-34.7,45c-7.2,26.2-3.6,54.2,2.1,80.4c0.5,2.2,3.9,1.3,3.4-0.9&#10;&#9;&#9;&#9;&#9;c-4.8-22-7.7-44.4-4.5-66.8c1.5-10.7,4.8-21,9.4-30.7c4.4-9.3,12.4-24,24.3-23.4C526.2,423.8,526.2,420.2,523.9,420.1z"/>
			<path fill="#AA9987" d="M539.8,442.4c-7.9,1.3-11.2,11.8-14.1,18.2c-4.2,9.6-6.3,19.9-7.6,30.2c-3.1,25.3,2.2,51,7,75.8&#10;&#9;&#9;&#9;&#9;c0.4,2.3,3.9,1.3,3.4-0.9c-4-20.7-7.9-41.5-7.6-62.7c0.1-10,1.6-19.9,4.1-29.6c1.8-6.9,6.9-26.1,15.7-27.6&#10;&#9;&#9;&#9;&#9;C543,445.4,542.1,442,539.8,442.4z"/>
			<path fill="#AA9987" d="M544.2,481.3c1.2-8.2,1.8-19.5,8.3-25.4c1.7-1.5-0.8-4-2.5-2.5c-5.1,4.5-6.2,10.5-7.5,17&#10;&#9;&#9;&#9;&#9;c-2,10.1-3.2,20.3-4,30.5c-1.6,20.3-0.3,40.8,3,60.9c0.4,2.3,3.8,1.3,3.4-0.9c-2.9-17.7-3.9-35.4-3.3-53.2&#10;&#9;&#9;&#9;&#9;C542,498.8,543,490,544.2,481.3z"/>
			<path fill="#AA9987" d="M560.1,477c-0.1-2.3-3.7-2.3-3.6,0c1.3,25,0.6,49.9-2.2,74.7c-0.3,2.3,3.3,2.3,3.6,0&#10;&#9;&#9;&#9;&#9;C560.7,526.9,561.4,502,560.1,477z"/>
			<path fill="#AA9987" d="M724.3,402.2c-16.8,2.2-33.7,2.6-50.6,1.1c-18.5-1.7-36.1-7-54.1-11.1c-25-5.7-55-6-72.8,15.4&#10;&#9;&#9;&#9;&#9;c-1.5,1.7,1,4.3,2.5,2.5c20.5-24.6,54.6-18.3,81.8-11.5c31,7.8,61.3,11.3,93.2,7.1C726.5,405.4,726.6,401.8,724.3,402.2z"/>
			<path fill="#AA9987" d="M713.7,415.4c-15.1,3.4-30.2,4.7-45.7,3.9c-16.6-0.8-32.5-5.6-48.7-9.2c-21.1-4.7-45.2-5-61.5,11.2&#10;&#9;&#9;&#9;&#9;c-1.6,1.6,0.9,4.1,2.5,2.5c21.1-21,52.3-11.7,77.6-5.6c25.4,6.1,51.2,6.4,76.7,0.6C716.9,418.3,715.9,414.9,713.7,415.4z"/>
			<path fill="#AA9987" d="M744.3,431.1c-32.3,12.2-66.9,10.8-100.1,3.2c-25.9-5.9-54.8-14.6-78.5,2.5c-1.8,1.3-0.1,4.4,1.8,3.1&#10;&#9;&#9;&#9;&#9;c27.4-19.7,62-4.1,91.5,1c28.8,5,58.7,4,86.2-6.4C747.4,433.7,746.5,430.3,744.3,431.1z"/>
			<path fill="#AA9987" d="M732.9,455.6c-26.3,18.2-59,10.8-87.5,2.7c-15-4.3-29.8-8.5-45.3-10.2c-10-1.1-20.7,0.2-27.8,8.1&#10;&#9;&#9;&#9;&#9;c-1.5,1.7,1,4.2,2.5,2.5c10.7-12,30.6-6.8,44.2-3.8c15,3.3,29.6,8.4,44.5,11.9c23.7,5.6,50.3,6.2,71.1-8.1&#10;&#9;&#9;&#9;&#9;C736.6,457.4,734.8,454.3,732.9,455.6z"/>
			<path fill="#B4FCF5" d="M195.1,741.1c0.2-1.1-1.5-1.6-1.7-0.5c-0.4,2.3-0.6,4.6-0.4,6.9c0.1,1.1,1.9,1.1,1.8,0&#10;&#9;&#9;&#9;&#9;C194.7,745.3,194.7,743.2,195.1,741.1z"/>
			<path fill="#B4FCF5" d="M194.8,754.7c0-1.1-1.8-1.1-1.8,0c0,2.2,0.2,4.3,0.5,6.5c0.2,1.1,1.9,1.1,1.8,0&#10;&#9;&#9;&#9;&#9;C195,759.1,194.8,756.9,194.8,754.7z"/>
			<path fill="#B4FCF5" d="M193.4,768.9v8.6c0,1.1,1.8,1.1,1.8,0v-8.6C195.1,767.8,193.4,767.8,193.4,768.9z"/>
			<path fill="#B4FCF5" d="M196.4,790.3c-0.8-2.1-1.2-4.3-1.1-6.6c0.1-1.1-1.7-1.1-1.8,0c-0.1,2.4,0.2,4.8,1.1,7.1&#10;&#9;&#9;&#9;&#9;C195.1,791.9,196.8,791.4,196.4,790.3z"/>
			<path fill="#B4FCF5" d="M197.4,804.2c-0.6-2.2-0.8-4.5-0.6-6.8c0.1-1.1-1.7-1.1-1.8,0c-0.2,2.5,0.1,4.9,0.7,7.3&#10;&#9;&#9;&#9;&#9;C196,805.8,197.7,805.3,197.4,804.2z"/>
			<path fill="#B4FCF5" d="M199.3,817.9c-0.7-2.2-1.2-4.5-1.4-6.8c-0.1-1.1-1.9-1.1-1.8,0c0.2,2.5,0.7,4.9,1.5,7.3&#10;&#9;&#9;&#9;&#9;C197.9,819.4,199.6,819,199.3,817.9z"/>
			<path fill="#B4FCF5" d="M201.4,832.3c-1-2.5-1.4-5.1-1.4-7.9c0-1.1-1.8-1.1-1.8,0c0,2.9,0.5,5.7,1.5,8.3&#10;&#9;&#9;&#9;&#9;C200.1,833.8,201.8,833.4,201.4,832.3z"/>
			<path fill="#B4FCF5" d="M204.5,847.1c-0.8-2.1-1.4-4.3-1.9-6.5c-0.2-1.1-1.9-0.6-1.7,0.5c0.5,2.2,1.1,4.4,1.9,6.5&#10;&#9;&#9;&#9;&#9;C203.1,848.6,204.9,848.2,204.5,847.1z"/>
			<path fill="#B4FCF5" d="M207.5,863.8c-0.8-2.8-1.3-5.5-1.5-8.4c-0.1-1.1-1.8-1.1-1.8,0c0.2,3,0.7,6,1.5,8.9&#10;&#9;&#9;&#9;&#9;C206.1,865.4,207.8,864.9,207.5,863.8z"/>
			<path fill="#B4FCF5" d="M211.3,880.8c-0.9-2.8-1.5-5.7-1.9-8.7c-0.2-1.1-1.9-0.6-1.7,0.5c0.4,2.9,1,5.8,1.9,8.7&#10;&#9;&#9;&#9;&#9;C209.9,882.3,211.6,881.9,211.3,880.8z"/>
			<path fill="#B4FCF5" d="M217.1,897.5c-1-3-1.9-6.1-2.5-9.2c-0.2-1.1-2-0.6-1.7,0.5c0.7,3.1,1.5,6.2,2.5,9.2&#10;&#9;&#9;&#9;&#9;C215.8,899.1,217.5,898.6,217.1,897.5z"/>
			<path fill="#B4FCF5" d="M222.3,912.5l-2.2-7.2c-0.3-1.1-2.1-0.6-1.7,0.5c0.7,2.4,1.5,4.8,2.2,7.2&#10;&#9;&#9;&#9;&#9;C220.9,914.1,222.6,913.6,222.3,912.5z"/>
			<path fill="#B4FCF5" d="M229,928.4c-1.1-2.5-2.6-5.1-3-7.8c-0.2-1.1-1.9-0.6-1.7,0.5c0.5,2.9,2.1,5.6,3.2,8.3&#10;&#9;&#9;&#9;&#9;C227.9,930.4,229.5,929.5,229,928.4z"/>
			<path fill="#B4FCF5" d="M235.4,942.1c-1-2.3-2-4.6-3-7c-0.5-1-2-0.1-1.5,0.9c1,2.3,2,4.6,3,7&#10;&#9;&#9;&#9;&#9;C234.4,944.1,235.9,943.2,235.4,942.1z"/>
			<path fill="#B4FCF5" d="M242.3,955.8c-1.1-1.9-2-3.8-2.7-5.9c-0.4-1.1-2.1-0.6-1.7,0.5c0.8,2.2,1.7,4.3,2.9,6.3&#10;&#9;&#9;&#9;&#9;C241.3,957.7,242.9,956.8,242.3,955.8z"/>
			<path fill="#B4FCF5" d="M250.2,969.5c-1.3-1.9-2.4-3.9-3.4-6.1c-0.5-1-2-0.1-1.5,0.9c0.9,2.1,2.1,4.2,3.4,6.1&#10;&#9;&#9;&#9;&#9;C249.3,971.4,250.8,970.5,250.2,969.5z"/>
			<path fill="#B4FCF5" d="M258.3,980.4c-1.8-1.3-3.2-3-4-5.1c-0.4-1.1-2-0.1-1.5,0.9c1,2.3,2.6,4.2,4.7,5.7&#10;&#9;&#9;&#9;&#9;C258.4,982.6,259.2,981,258.3,980.4z"/>
			<path fill="#B4FCF5" d="M268.6,990.2c-1.7-0.7-2.9-1.9-3.7-3.5c-0.5-1-2-0.1-1.5,0.9c0.9,1.9,2.4,3.3,4.3,4.2&#10;&#9;&#9;&#9;&#9;C268.8,992.2,269.7,990.7,268.6,990.2z"/>
			<path fill="#B4FCF5" d="M280.8,1000.6c-1.8-1.1-3.5-2.4-4.8-4c-0.8-0.9-2,0.4-1.3,1.3c1.5,1.7,3.2,3.2,5.2,4.3&#10;&#9;&#9;&#9;&#9;C280.9,1002.7,281.8,1001.1,280.8,1000.6z"/>
			<path fill="#B4FCF5" d="M296.6,1009.2c-2.4-0.8-4.6-1.9-6.6-3.4c-0.9-0.7-1.8,0.9-0.9,1.5c2.1,1.6,4.5,2.8,7,3.6&#10;&#9;&#9;&#9;&#9;C297.2,1011.3,297.7,1009.6,296.6,1009.2z"/>
			<path fill="#B4FCF5" d="M313.7,1013.3c-2.9-0.3-5.7-0.8-8.6-1.4c-1.1-0.2-1.6,1.5-0.5,1.7c3,0.6,6,1.1,9,1.5&#10;&#9;&#9;&#9;&#9;C314.8,1015.2,314.8,1013.5,313.7,1013.3z"/>
			<path fill="#B4FCF5" d="M330.4,1015.9c-2.7-0.1-5.4-0.6-8-1.3c-1.1-0.3-1.6,1.4-0.5,1.7c2.8,0.7,5.6,1.2,8.5,1.3&#10;&#9;&#9;&#9;&#9;C331.6,1017.8,331.6,1016,330.4,1015.9z"/>
			<path fill="#B4FCF5" d="M347,1015.5c-2.5,0.3-4.9,0.4-7.4,0.2c-1.1-0.1-1.1,1.7,0,1.8c2.5,0.2,4.9,0.1,7.4-0.2&#10;&#9;&#9;&#9;&#9;C348.2,1017.1,348.2,1015.3,347,1015.5z"/>
			<path fill="#B4FCF5" d="M365.7,1011.7c-3.2,1.4-6.5,2-10,1.9c-1.1,0-1.1,1.8,0,1.8c3.8,0.1,7.4-0.6,10.9-2.1&#10;&#9;&#9;&#9;&#9;C367.6,1012.8,366.7,1011.3,365.7,1011.7z"/>
			<path fill="#B4FCF5" d="M379.4,1006.8c-2.1,0.8-4.2,1.6-6.3,2.2c-1.1,0.3-0.6,2,0.5,1.7c2.1-0.6,4.2-1.3,6.3-2.2&#10;&#9;&#9;&#9;&#9;C380.9,1008.1,380.5,1006.4,379.4,1006.8z"/>
			<path fill="#B4FCF5" d="M391.7,1002.1c-1.9,1.1-4,1.9-6.1,2.4c-1.1,0.3-0.6,2,0.5,1.7c2.3-0.6,4.5-1.4,6.5-2.6&#10;&#9;&#9;&#9;&#9;C393.5,1003.1,392.7,1001.5,391.7,1002.1z"/>
			<path fill="#B4FCF5" d="M405.7,995.8c-2.2,1.2-4.4,2.2-6.7,3.1c-1.1,0.4-0.6,2.1,0.5,1.7c2.4-1,4.8-2.1,7.1-3.3&#10;&#9;&#9;&#9;&#9;C407.6,996.8,406.7,995.2,405.7,995.8z"/>
			<path fill="#B4FCF5" d="M420.4,987.7c-2.4,1.5-4.9,2.8-7.4,4.1c-1,0.5-0.1,2.1,0.9,1.5c2.5-1.3,5-2.6,7.4-4.1&#10;&#9;&#9;&#9;&#9;C422.3,988.7,421.4,987.1,420.4,987.7z"/>
			<path fill="#B4FCF5" d="M434.4,977.4c-2.4,1.6-4.8,3.2-7.2,4.8c-1,0.6-0.1,2.2,0.9,1.5c2.4-1.6,4.8-3.2,7.2-4.8&#10;&#9;&#9;&#9;&#9;C436.2,978.3,435.3,976.8,434.4,977.4z"/>
			<path fill="#B4FCF5" d="M448.9,966c-2.4,1.9-4.8,3.7-7.4,5.5c-0.9,0.6-0.1,2.2,0.9,1.5c2.6-1.8,5.2-3.7,7.7-5.8&#10;&#9;&#9;&#9;&#9;C451.1,966.5,449.8,965.3,448.9,966z"/>
			<path fill="#B4FCF5" d="M462.6,955.1c-2.4,1.6-4.6,3.4-6.5,5.5c-0.8,0.8,0.5,2.1,1.3,1.3c1.8-2,3.9-3.7,6.2-5.2&#10;&#9;&#9;&#9;&#9;C464.5,956,463.6,954.4,462.6,955.1z"/>
			<path fill="#B4FCF5" d="M475,942.5c-2,2.3-4.2,4.5-6.5,6.6c-0.9,0.8,0.4,2,1.3,1.3c2.3-2.1,4.5-4.3,6.5-6.6&#10;&#9;&#9;&#9;&#9;C477.1,942.9,475.8,941.7,475,942.5z"/>
			<path fill="#B4FCF5" d="M484.8,932.3c-1.7,1.7-3.3,3.3-5,5c-0.8,0.8,0.4,2.1,1.3,1.3c1.7-1.7,3.3-3.3,5-5&#10;&#9;&#9;&#9;&#9;C486.8,932.7,485.6,931.5,484.8,932.3z"/>
			<path fill="#B4FCF5" d="M497.9,918.2c-2,3-4.3,5.9-6.9,8.5c-0.8,0.8,0.5,2.1,1.3,1.3c2.6-2.7,5-5.7,7.1-8.8&#10;&#9;&#9;&#9;&#9;C500.1,918.1,498.6,917.2,497.9,918.2z"/>
			<path fill="#B4FCF5" d="M508.6,904.9c-1.9,2.5-4,4.9-6.1,7.3c-0.8,0.8,0.5,2.1,1.3,1.3c2.2-2.4,4.4-5,6.4-7.6&#10;&#9;&#9;&#9;&#9;C510.8,904.9,509.3,904,508.6,904.9z"/>
			<path fill="#B4FCF5" d="M518.4,890.8c-1.6,2.8-3.3,5.5-5.2,8.1c-0.7,0.9,0.9,1.8,1.5,0.9c1.8-2.6,3.6-5.4,5.2-8.1&#10;&#9;&#9;&#9;&#9;C520.5,890.7,519,889.8,518.4,890.8z"/>
			<path fill="#B4FCF5" d="M525.9,875c-0.8,2.9-1.8,5.6-3.2,8.2c-0.5,1,1,1.9,1.5,0.9c1.4-2.8,2.6-5.6,3.4-8.7&#10;&#9;&#9;&#9;&#9;C527.9,874.4,526.2,873.9,525.9,875z"/>
			<path fill="#B4FCF5" d="M531.2,859.3c-0.5,2.7-1.2,5.3-2.2,7.9c-0.4,1.1,1.3,1.5,1.7,0.5c1-2.6,1.7-5.2,2.2-7.9&#10;&#9;&#9;&#9;&#9;C533.1,858.7,531.4,858.2,531.2,859.3z"/>
			<path fill="#B4FCF5" d="M532.6,843.9c-0.1,2.3-0.2,4.6-0.2,6.8c0,1.1,1.7,1.1,1.8,0c0.1-2.3,0.2-4.6,0.2-6.8&#10;&#9;&#9;&#9;&#9;C534.4,842.7,532.6,842.7,532.6,843.9z"/>
			<path fill="#B4FCF5" d="M534,830.3c-0.4-1.1-2.1-0.6-1.7,0.5c0.7,1.7,1,3.5,0.9,5.3c-0.1,1.1,1.7,1.1,1.8,0&#10;&#9;&#9;&#9;&#9;C535,834.1,534.7,832.2,534,830.3z"/>
			<path fill="#B4FCF5" d="M752.3,976.9c-2.9-0.5-5.7-1.4-8.4-2.6c-1-0.5-1.9,1.1-0.9,1.5c2.8,1.3,5.7,2.3,8.8,2.8&#10;&#9;&#9;&#9;&#9;C753,978.8,753.5,977.1,752.3,976.9z"/>
			<path fill="#B4FCF5" d="M771.5,983c-3.6-0.6-7-1.6-10.3-3.2c-1-0.5-1.9,1-0.9,1.5c3.4,1.6,7,2.8,10.7,3.4&#10;&#9;&#9;&#9;&#9;C772.2,984.9,772.6,983.1,771.5,983z"/>
			<path fill="#B4FCF5" d="M788.9,987.4c-3.1-0.7-6.3-1.5-9.4-2.2c-1.1-0.3-1.6,1.4-0.5,1.7c3.1,0.7,6.3,1.5,9.4,2.2&#10;&#9;&#9;&#9;&#9;C789.5,989.4,790,987.6,788.9,987.4z"/>
		</g>
	</g>
</g>
<path fill="#F2895F" d="M930.9,415c2.6,0.4,5.2-0.8,7.5-2c15-7.5,29.5-15.9,43.3-25.4c6.1-4.1,12.1-8.6,16.2-14.7&#10;&#9;c4.1-6.1,5.8-14.3,2.6-20.9c-5.5-11.2-21.9-12.1-32.9-6.2c-11,5.9-18.7,16.3-28.5,24.1c-4.5-10.9-9.2-22-16.5-31.3&#10;&#9;s-17.8-16.8-29.6-17.9c-1.7-0.2-3.6-0.1-5,0.9c-1.4,1-2.1,2.8-2.5,4.5c-3.6,14.7,3.1,29.9,10.6,43.1c8,14.1,17.1,27.5,27.2,40.1&#10;&#9;C925.4,411.9,927.7,414.5,930.9,415z" transform="matrix(1, 0, 0, 1, -166.42333984375, -260.58391284942627)"/>
<path fill="#F2895F" d="M832.4,328.1c1.6-0.8,2.5-2.4,3.3-3.9c5.3-9.8,9.9-19.9,13.7-30.3c1.7-4.6,3.3-9.3,3.2-14.1&#10;&#9;c-0.1-4.9-2.3-9.9-6.6-12.3c-7.2-4-16.5,1.8-20.2,9.2c-3.7,7.4-3.9,16-6.2,23.9c-6.6-4.2-13.4-8.4-20.9-10.7s-16-2.3-22.8,1.6&#10;&#9;c-1,0.6-2,1.3-2.4,2.4c-0.4,1.1,0,2.3,0.4,3.4c3.7,9.3,13.1,15,22.2,19.3c9.7,4.6,19.7,8.3,30,11.3&#10;&#9;C828.3,328.5,830.5,329,832.4,328.1z" transform="matrix(1, 0, 0, 1, -166.42333984375, -260.58391284942627)"/>
</svg>