<svg height="512pt" viewBox="0 0 512 512.37881" width="512pt" xmlns="http://www.w3.org/2000/svg"><path d="m312.574219 259.382812c-43.179688-43.179687-110.851563-49.839843-161.621094-15.910156-50.773437 33.929688-70.507813 99-47.136719 155.414063 23.375 56.417969 83.34375 88.464843 143.234375 76.546875 59.894531-11.917969 103.023438-64.480469 103.019531-125.546875.09375-33.964844-13.410156-66.554688-37.496093-90.503907zm-12.066407 168.957032c-37.421874 37.421875-96.066406 43.195312-140.070312 13.792968-44-29.402343-61.109375-85.792968-40.855469-134.6875 20.25-48.894531 72.21875-76.671874 124.125-66.351562s89.292969 55.871094 89.296875 108.792969c.082032 29.4375-11.621094 57.683593-32.496094 78.4375zm0 0"/><path d="m230.605469 264.550781c0-4.710937-3.820313-8.53125-8.535157-8.53125-51.839843 0-93.867187 42.023438-93.867187 93.867188 0 4.710937 3.820313 8.53125 8.535156 8.53125 4.710938 0 8.53125-3.820313 8.53125-8.53125 0-42.417969 34.386719-76.800781 76.800781-76.800781 4.714844 0 8.535157-3.820313 8.535157-8.535157zm0 0"/><path d="m307.40625 341.351562c-4.714844 0-8.535156 3.820313-8.535156 8.535157 0 42.414062-34.382813 76.800781-76.800782 76.800781-4.710937 0-8.53125 3.820312-8.53125 8.53125 0 4.714844 3.820313 8.535156 8.53125 8.535156 51.84375 0 93.867188-42.027344 93.867188-93.867187 0-4.714844-3.820312-8.535157-8.53125-8.535157zm0 0"/><path d="m448.203125 418.152344c-16.492187 0-29.867187 13.371094-29.867187 29.867187 0 16.496094 13.375 29.867188 29.867187 29.867188 16.496094 0 29.867187-13.371094 29.867187-29.867188 0-16.496093-13.371093-29.867187-29.867187-29.867187zm0 42.667968c-7.066406 0-12.796875-5.730468-12.796875-12.800781 0-7.070312 5.730469-12.800781 12.796875-12.800781 7.070313 0 12.800781 5.730469 12.800781 12.800781 0 7.070313-5.730468 12.800781-12.800781 12.800781zm0 0"/><path d="m256.203125 349.886719c0-18.851563-15.28125-34.132813-34.132813-34.132813-18.851562 0-34.132812 15.28125-34.132812 34.132813 0 18.851562 15.28125 34.132812 34.132812 34.132812 18.851563 0 34.132813-15.28125 34.132813-34.132812zm-51.199219 0c0-9.425781 7.640625-17.066407 17.066406-17.066407 9.425782 0 17.066407 7.640626 17.066407 17.066407s-7.640625 17.066406-17.066407 17.066406c-9.425781 0-17.066406-7.640625-17.066406-17.066406zm0 0"/><path d="m503.671875 307.21875c-.039063-32.972656-26.761719-59.695312-59.734375-59.734375h-96.152344c-3.488281-4.265625-7.191406-8.351563-11.09375-12.242187-1.195312-1.195313-2.492187-2.210938-3.710937-3.355469v-52.667969c-.039063-32.972656-26.761719-59.695312-59.734375-59.734375h-151.527344l-10.726562-88.421875c-1.445313-11.492188-10.394532-20.605469-21.863282-22.253906l-59.730468-8.535156c-6.667969-.992188-13.457032.726562-18.851563 4.773437-5.488281 4.074219-9.117187 10.175781-10.078125 16.945313-1 6.679687.714844 13.480468 4.761719 18.882812 4.082031 5.5 10.199219 9.132812 16.980469 10.089844l40.277343 5.734375 24.601563 203.390625c-37.445313 56.042968-36.3125 129.410156 2.847656 184.269531s108.175781 79.769531 173.347656 62.566406c65.167969-17.203125 112.898438-72.933593 119.878906-139.972656h69.308594v17.28125c-1.417968-.097656-2.824218-.214844-4.269531-.214844-29.050781-.082031-54.535156 19.363281-62.128906 47.40625s4.601562 57.6875 29.722656 72.273438c25.125 14.589843 56.917969 10.480469 77.503906-10.015625 20.589844-20.496094 24.84375-52.269532 10.371094-77.460938zm-128-8.53125h68.265625c4.714844 0 8.535156 3.820312 8.535156 8.53125v8.535156h-72.074218c-1.261719-5.773437-2.839844-11.46875-4.726563-17.066406zm-102.402344-162.136719c23.554688.03125 42.640625 19.117188 42.667969 42.667969v38.683594c-5.457031-3.9375-11.160156-7.523438-17.066406-10.746094v-27.9375c0-14.136719-11.460938-25.597656-25.601563-25.597656h-147.410156l-2.074219-17.070313zm-140.054687 77.722657-5.285156-43.585938h145.339843c4.714844 0 8.535157 3.820312 8.535157 8.53125v20.003906c-49.042969-19.359375-104.425782-13.746094-148.589844 15.050782zm-53.777344-159.640626c-.925781-7.660156-6.871094-13.746093-14.507812-14.847656l-40.285157-5.71875c-2.289062-.324218-4.351562-1.554687-5.726562-3.414062-1.332031-1.777344-1.894531-4.019532-1.5625-6.21875.324219-2.289063 1.554687-4.351563 3.414062-5.726563 1.789063-1.332031 4.035157-1.894531 6.238281-1.5625l59.734376 8.535157c3.839843.550781 6.839843 3.601562 7.328124 7.449218l23.398438 193.023438c-3.414062 2.894531-6.824219 5.84375-10.042969 9.070312-1.929687 1.929688-3.609375 4.003906-5.417969 5.972656zm245.210938 397.832032c-56.636719 56.585937-148.421876 56.554687-205.023438-.066406-56.601562-56.621094-56.601562-148.402344 0-205.023438 56.601562-56.625 148.386719-56.652344 205.023438-.066406 56.558593 56.691406 56.558593 148.464844 0 205.15625zm136.355468-102.578125h-76.875c-.023437-5.703125-.347656-11.398438-.964844-17.066407h77.839844c4.714844 0 8.535156-3.820312 8.535156-8.535156v-17.066406c0-14.136719-11.460937-25.597656-25.601562-25.597656h-75.015625c-2.703125-5.871094-5.761719-11.570313-9.15625-17.070313h84.171875c23.550781.03125 42.640625 19.117188 42.667969 42.667969v89.71875c-5.1875-3.910156-10.945313-7.007812-17.066407-9.179688v-29.339843c0-4.710938-3.820312-8.53125-8.535156-8.53125zm-12.800781 145.066406c-25.917969 0-46.933594-21.011719-46.933594-46.933594s21.015625-46.933593 46.933594-46.933593c25.921875 0 46.933594 21.011718 46.933594 46.933593-.027344 25.910157-21.023438 46.90625-46.933594 46.933594zm0 0"/></svg>